<svg xmlns="http://www.w3.org/2000/svg" xmlns:xlink="http://www.w3.org/1999/xlink" width="3456" zoomAndPan="magnify" viewBox="0 0 2592 1295.99994" height="1728" preserveAspectRatio="xMidYMid meet" version="1.0"><path fill="#051d40" d="M 414.566406 679.769531 L 411.8125 677.015625 L 411.957031 677.015625 Z M 414.566406 679.769531 " fill-opacity="1" fill-rule="nonzero"/><path fill="#051d40" d="M 450.089844 372.40625 C 363.535156 372.40625 289.011719 423.730469 255.085938 497.527344 C 254.941406 497.816406 254.796875 498.105469 254.652344 498.394531 C 242.472656 525.363281 235.660156 555.230469 235.660156 586.835938 C 235.660156 705.285156 331.636719 801.265625 450.089844 801.265625 C 568.539062 801.265625 664.519531 705.285156 664.519531 586.835938 C 664.371094 468.386719 568.394531 372.40625 450.089844 372.40625 Z M 542.585938 450.695312 L 582.167969 490.277344 L 542.585938 490.277344 Z M 542.585938 525.21875 L 589.996094 525.21875 L 556.796875 558.417969 L 546.355469 547.980469 L 542.585938 544.210938 Z M 477.34375 423.730469 L 449.652344 451.421875 L 421.960938 423.730469 Z M 391.226562 442.289062 L 425.152344 476.214844 L 413.988281 487.378906 L 410.941406 490.421875 L 391.371094 490.421875 L 391.371094 442.289062 Z M 289.59375 611.484375 L 289.59375 554.792969 L 318.007812 583.210938 Z M 356.285156 716.304688 L 316.703125 676.726562 L 356.285156 676.726562 Z M 356.285156 641.785156 L 308.875 641.785156 L 342.800781 607.859375 L 353.964844 619.023438 L 356.285156 621.339844 Z M 356.285156 544.9375 L 353.238281 547.980469 L 342.800781 558.417969 L 309.601562 525.21875 L 356.285156 525.21875 Z M 356.285156 490.421875 L 317.429688 490.421875 L 356.285156 451.566406 Z M 391.226562 677.015625 L 411.957031 677.015625 L 414.710938 679.769531 L 425.152344 690.207031 L 391.226562 724.132812 Z M 421.382812 743.273438 L 449.796875 714.855469 L 478.214844 743.273438 Z M 507.648438 723.410156 L 474.445312 690.207031 L 484.882812 679.769531 L 487.640625 677.015625 L 507.648438 677.015625 Z M 458.640625 641.785156 C 458.496094 641.785156 458.496094 641.785156 458.640625 641.785156 C 458.351562 641.785156 458.0625 641.929688 457.773438 641.929688 C 457.191406 642.074219 456.46875 642.074219 455.886719 642.21875 C 455.886719 642.21875 455.742188 642.21875 455.742188 642.21875 C 454.582031 642.363281 453.277344 642.507812 451.972656 642.507812 C 451.101562 642.507812 450.234375 642.652344 449.363281 642.652344 C 448.785156 642.652344 448.203125 642.652344 447.625 642.652344 C 446.027344 642.652344 444.578125 642.507812 443.128906 642.363281 C 443.128906 642.363281 442.984375 642.363281 442.984375 642.363281 C 442.550781 642.363281 441.96875 642.21875 441.535156 642.21875 L 441.535156 642.363281 L 441.535156 642.21875 C 441.097656 642.21875 440.808594 642.074219 440.375 642.074219 C 440.375 642.074219 440.375 642.074219 440.230469 642.074219 C 412.394531 637.722656 391.226562 613.65625 391.226562 584.515625 C 391.226562 552.328125 417.324219 526.234375 449.363281 526.234375 C 481.550781 526.234375 507.648438 552.328125 507.648438 584.515625 C 507.648438 613.222656 486.335938 637.289062 458.640625 641.785156 Z M 507.648438 490.421875 L 488.800781 490.421875 L 474.589844 476.214844 L 507.792969 443.011719 L 507.792969 490.421875 Z M 542.585938 717.03125 L 542.585938 676.726562 L 582.890625 676.726562 Z M 542.585938 641.785156 L 542.585938 622.066406 L 545.632812 619.023438 L 556.796875 607.859375 L 590.722656 641.785156 Z M 581.441406 583.210938 L 609.132812 555.519531 L 609.132812 610.757812 Z M 581.441406 583.210938 " fill-opacity="1" fill-rule="nonzero"/><path fill="#051d40" d="M 787.171875 673.390625 L 787.171875 473.023438 L 748.460938 473.023438 L 748.460938 706.011719 L 877.496094 706.011719 L 877.496094 673.390625 Z M 787.171875 673.390625 " fill-opacity="1" fill-rule="nonzero"/><path fill="#051d40" d="M 1024.65625 473.023438 L 981.160156 473.023438 L 893.878906 706.011719 L 936.070312 706.011719 L 956.222656 646.714844 L 1047.851562 646.714844 L 1068.875 706.011719 L 1111.355469 706.011719 Z M 966.226562 615.253906 L 998.269531 522.316406 C 999.425781 518.695312 1000.585938 513.910156 1001.457031 507.675781 L 1002.039062 507.675781 C 1003.050781 514.34375 1004.210938 519.273438 1005.082031 522.316406 L 1037.414062 615.253906 Z M 966.226562 615.253906 " fill-opacity="1" fill-rule="nonzero"/><path fill="#051d40" d="M 1264.746094 505.933594 L 1264.746094 473.023438 L 1138.902344 473.023438 L 1138.902344 706.011719 L 1177.609375 706.011719 L 1177.609375 608.582031 L 1257.929688 608.582031 L 1257.929688 575.960938 L 1177.609375 575.960938 L 1177.609375 505.933594 Z M 1264.746094 505.933594 " fill-opacity="1" fill-rule="nonzero"/><path fill="#051d40" d="M 1391.027344 473.023438 L 1347.53125 473.023438 L 1260.25 706.011719 L 1302.441406 706.011719 L 1322.59375 646.714844 L 1414.222656 646.714844 L 1435.246094 706.011719 L 1477.726562 706.011719 Z M 1332.742188 615.253906 L 1364.785156 522.316406 C 1365.945312 518.695312 1367.101562 513.910156 1367.972656 507.675781 L 1368.554688 507.675781 C 1369.566406 514.34375 1370.726562 519.273438 1371.597656 522.316406 L 1403.929688 615.253906 Z M 1332.742188 615.253906 " fill-opacity="1" fill-rule="nonzero"/><path fill="#051d40" d="M 1707.523438 473.023438 L 1645.179688 627.574219 C 1642.714844 633.519531 1639.378906 642.652344 1635.464844 654.832031 L 1634.597656 654.832031 C 1633.148438 649.03125 1630.101562 640.042969 1625.460938 628.15625 L 1564.132812 472.878906 L 1509.765625 472.878906 L 1509.765625 705.867188 L 1545.578125 705.867188 L 1545.578125 555.519531 C 1545.578125 534.351562 1545.140625 519.128906 1544.273438 509.851562 L 1544.851562 509.851562 C 1547.027344 520.289062 1549.054688 527.972656 1551.085938 533.046875 L 1620.824219 706.011719 L 1647.5 706.011719 L 1717.089844 531.742188 C 1718.976562 527.246094 1721.003906 520 1723.46875 509.851562 L 1724.050781 509.851562 C 1722.601562 527.683594 1721.730469 542.90625 1721.730469 555.230469 L 1721.730469 706.011719 L 1760.152344 706.011719 L 1760.152344 473.023438 Z M 1707.523438 473.023438 " fill-opacity="1" fill-rule="nonzero"/><path fill="#051d40" d="M 1817.128906 473.023438 L 1817.128906 706.011719 L 1857 706.011719 L 1857 473.023438 Z M 1817.128906 473.023438 " fill-opacity="1" fill-rule="nonzero"/><path fill="#051d40" d="M 1952.976562 673.390625 L 1952.976562 473.023438 L 1914.269531 473.023438 L 1914.269531 706.011719 L 2043.300781 706.011719 L 2043.300781 673.390625 Z M 1952.976562 673.390625 " fill-opacity="1" fill-rule="nonzero"/><path fill="#051d40" d="M 2076.792969 473.023438 L 2076.792969 706.011719 L 2116.664062 706.011719 L 2116.664062 473.023438 Z M 2076.792969 473.023438 " fill-opacity="1" fill-rule="nonzero"/><path fill="#051d40" d="M 2278.898438 473.023438 L 2235.40625 473.023438 L 2148.125 706.011719 L 2190.316406 706.011719 L 2210.46875 646.714844 L 2302.097656 646.714844 L 2323.117188 706.011719 L 2365.453125 706.011719 Z M 2220.472656 615.253906 L 2252.511719 522.316406 C 2253.671875 518.695312 2254.832031 513.910156 2255.703125 507.675781 L 2256.425781 507.675781 C 2257.441406 514.34375 2258.601562 519.273438 2259.472656 522.316406 L 2291.800781 615.253906 Z M 2220.472656 615.253906 " fill-opacity="1" fill-rule="nonzero"/></svg>